<svg id="visual" viewBox="0 0 900 675" width="900" height="675" xmlns="http://www.w3.org/2000/svg" xmlns:xlink="http://www.w3.org/1999/xlink" version="1.1"><path d="M0 116L18.8 107C37.7 98 75.3 80 112.8 84.5C150.3 89 187.7 116 225.2 125C262.7 134 300.3 125 337.8 110.3C375.3 95.7 412.7 75.3 450.2 76.5C487.7 77.7 525.3 100.3 562.8 116.2C600.3 132 637.7 141 675.2 142C712.7 143 750.3 136 787.8 133.7C825.3 131.3 862.7 133.7 881.3 134.8L900 136L900 0L881.3 0C862.7 0 825.3 0 787.8 0C750.3 0 712.7 0 675.2 0C637.7 0 600.3 0 562.8 0C525.3 0 487.7 0 450.2 0C412.7 0 375.3 0 337.8 0C300.3 0 262.7 0 225.2 0C187.7 0 150.3 0 112.8 0C75.3 0 37.7 0 18.8 0L0 0Z" fill="#ccccd3"></path><path d="M0 298L18.8 307C37.7 316 75.3 334 112.8 346.3C150.3 358.7 187.7 365.3 225.2 351.8C262.7 338.3 300.3 304.7 337.8 274.3C375.3 244 412.7 217 450.2 217C487.7 217 525.3 244 562.8 263.2C600.3 282.3 637.7 293.7 675.2 306C712.7 318.3 750.3 331.7 787.8 363.2C825.3 394.7 862.7 444.3 881.3 469.2L900 494L900 134L881.3 132.8C862.7 131.7 825.3 129.3 787.8 131.7C750.3 134 712.7 141 675.2 140C637.7 139 600.3 130 562.8 114.2C525.3 98.3 487.7 75.7 450.2 74.5C412.7 73.3 375.3 93.7 337.8 108.3C300.3 123 262.7 132 225.2 123C187.7 114 150.3 87 112.8 82.5C75.3 78 37.7 96 18.8 105L0 114Z" fill="#b3b2df"></path><path d="M0 366L18.8 378.3C37.7 390.7 75.3 415.3 112.8 424.3C150.3 433.3 187.7 426.7 225.2 415.3C262.7 404 300.3 388 337.8 355.3C375.3 322.7 412.7 273.3 450.2 272.3C487.7 271.3 525.3 318.7 562.8 342.3C600.3 366 637.7 366 675.2 383.8C712.7 401.7 750.3 437.3 787.8 464.3C825.3 491.3 862.7 509.7 881.3 518.8L900 528L900 492L881.3 467.2C862.7 442.3 825.3 392.7 787.8 361.2C750.3 329.7 712.7 316.3 675.2 304C637.7 291.7 600.3 280.3 562.8 261.2C525.3 242 487.7 215 450.2 215C412.7 215 375.3 242 337.8 272.3C300.3 302.7 262.7 336.3 225.2 349.8C187.7 363.3 150.3 356.7 112.8 344.3C75.3 332 37.7 314 18.8 305L0 296Z" fill="#9c97e8"></path><path d="M0 622L18.8 609.7C37.7 597.3 75.3 572.7 112.8 553.5C150.3 534.3 187.7 520.7 225.2 512.8C262.7 505 300.3 503 337.8 505.3C375.3 507.7 412.7 514.3 450.2 514.3C487.7 514.3 525.3 507.7 562.8 504.3C600.3 501 637.7 501 675.2 513.3C712.7 525.7 750.3 550.3 787.8 569.3C825.3 588.3 862.7 601.7 881.3 608.3L900 615L900 526L881.3 516.8C862.7 507.7 825.3 489.3 787.8 462.3C750.3 435.3 712.7 399.7 675.2 381.8C637.7 364 600.3 364 562.8 340.3C525.3 316.7 487.7 269.3 450.2 270.3C412.7 271.3 375.3 320.7 337.8 353.3C300.3 386 262.7 402 225.2 413.3C187.7 424.7 150.3 431.3 112.8 422.3C75.3 413.3 37.7 388.7 18.8 376.3L0 364Z" fill="#867bee"></path><path d="M0 676L18.8 676C37.7 676 75.3 676 112.8 676C150.3 676 187.7 676 225.2 676C262.7 676 300.3 676 337.8 676C375.3 676 412.7 676 450.2 676C487.7 676 525.3 676 562.8 676C600.3 676 637.7 676 675.2 676C712.7 676 750.3 676 787.8 676C825.3 676 862.7 676 881.3 676L900 676L900 613L881.3 606.3C862.7 599.7 825.3 586.3 787.8 567.3C750.3 548.3 712.7 523.7 675.2 511.3C637.7 499 600.3 499 562.8 502.3C525.3 505.7 487.7 512.3 450.2 512.3C412.7 512.3 375.3 505.7 337.8 503.3C300.3 501 262.7 503 225.2 510.8C187.7 518.7 150.3 532.3 112.8 551.5C75.3 570.7 37.7 595.3 18.8 607.7L0 620Z" fill="#715df2"></path></svg>