<svg id="visual" viewBox="0 0 900 675" width="900" height="675" xmlns="http://www.w3.org/2000/svg" xmlns:xlink="http://www.w3.org/1999/xlink" version="1.1"><path d="M0 109L18.8 106.8C37.7 104.7 75.3 100.3 112.8 94.7C150.3 89 187.7 82 225.2 91C262.7 100 300.3 125 337.8 137.5C375.3 150 412.7 150 450.2 183.7C487.7 217.3 525.3 284.7 562.8 299.2C600.3 313.7 637.7 275.3 675.2 259.7C712.7 244 750.3 251 787.8 238.7C825.3 226.3 862.7 194.7 881.3 178.8L900 163L900 0L881.3 0C862.7 0 825.3 0 787.8 0C750.3 0 712.7 0 675.2 0C637.7 0 600.3 0 562.8 0C525.3 0 487.7 0 450.2 0C412.7 0 375.3 0 337.8 0C300.3 0 262.7 0 225.2 0C187.7 0 150.3 0 112.8 0C75.3 0 37.7 0 18.8 0L0 0Z" fill="#6600ff"></path><path d="M0 197L18.8 192.5C37.7 188 75.3 179 112.8 179C150.3 179 187.7 188 225.2 203.7C262.7 219.3 300.3 241.7 337.8 250.7C375.3 259.7 412.7 255.3 450.2 284.7C487.7 314 525.3 377 562.8 388.2C600.3 399.3 637.7 358.7 675.2 335C712.7 311.3 750.3 304.7 787.8 285.7C825.3 266.7 862.7 235.3 881.3 219.7L900 204L900 161L881.3 176.8C862.7 192.7 825.3 224.3 787.8 236.7C750.3 249 712.7 242 675.2 257.7C637.7 273.3 600.3 311.7 562.8 297.2C525.3 282.7 487.7 215.3 450.2 181.7C412.7 148 375.3 148 337.8 135.5C300.3 123 262.7 98 225.2 89C187.7 80 150.3 87 112.8 92.7C75.3 98.3 37.7 102.7 18.8 104.8L0 107Z" fill="#7755fe"></path><path d="M0 372L18.8 374.3C37.7 376.7 75.3 381.3 112.8 398.2C150.3 415 187.7 444 225.2 459.7C262.7 475.3 300.3 477.7 337.8 466.5C375.3 455.3 412.7 430.7 450.2 442C487.7 453.3 525.3 500.7 562.8 498.5C600.3 496.3 637.7 444.7 675.2 433.3C712.7 422 750.3 451 787.8 469C825.3 487 862.7 494 881.3 497.5L900 501L900 202L881.3 217.7C862.7 233.3 825.3 264.7 787.8 283.7C750.3 302.7 712.7 309.3 675.2 333C637.7 356.7 600.3 397.3 562.8 386.2C525.3 375 487.7 312 450.2 282.7C412.7 253.3 375.3 257.7 337.8 248.7C300.3 239.7 262.7 217.3 225.2 201.7C187.7 186 150.3 177 112.8 177C75.3 177 37.7 186 18.8 190.5L0 195Z" fill="#8f81f6"></path><path d="M0 528L18.8 532.5C37.7 537 75.3 546 112.8 551.5C150.3 557 187.7 559 225.2 557.8C262.7 556.7 300.3 552.3 337.8 547.8C375.3 543.3 412.7 538.7 450.2 554.3C487.7 570 525.3 606 562.8 605C600.3 604 637.7 566 675.2 552.5C712.7 539 750.3 550 787.8 560C825.3 570 862.7 579 881.3 583.5L900 588L900 499L881.3 495.5C862.7 492 825.3 485 787.8 467C750.3 449 712.7 420 675.2 431.3C637.7 442.7 600.3 494.3 562.8 496.5C525.3 498.7 487.7 451.3 450.2 440C412.7 428.7 375.3 453.3 337.8 464.5C300.3 475.7 262.7 473.3 225.2 457.7C187.7 442 150.3 413 112.8 396.2C75.3 379.3 37.7 374.7 18.8 372.3L0 370Z" fill="#aba8e7"></path><path d="M0 676L18.8 676C37.7 676 75.3 676 112.8 676C150.3 676 187.7 676 225.2 676C262.7 676 300.3 676 337.8 676C375.3 676 412.7 676 450.2 676C487.7 676 525.3 676 562.8 676C600.3 676 637.7 676 675.2 676C712.7 676 750.3 676 787.8 676C825.3 676 862.7 676 881.3 676L900 676L900 586L881.3 581.5C862.7 577 825.3 568 787.8 558C750.3 548 712.7 537 675.2 550.5C637.7 564 600.3 602 562.8 603C525.3 604 487.7 568 450.2 552.3C412.7 536.7 375.3 541.3 337.8 545.8C300.3 550.3 262.7 554.7 225.2 555.8C187.7 557 150.3 555 112.8 549.5C75.3 544 37.7 535 18.8 530.5L0 526Z" fill="#ccccd3"></path></svg>